# xmcd CD database file
# 
# Track frame offsets:
# 	150
# 	10266
# 	23380
# 	34789
# 	46057
# 	57770
# 	69173
# 	79320
# 	91282
# 	104829
# 	117148
# 	127805
# 	138364
# 	154009
# 	166461
# 	175827
# 	186206
# 	196579
# 	209101
# 	220418
# 	229822
# 	241941
# 	254235
# 	263638
# 
# Disc length: 3653 seconds
# 
# Submitted via: Nero 6, 6, 1, 15
# 
# Revision: 0
# Processed by: cddbd v1.5.2PL0 Copyright (c) Steve Scherf et al.
#
DISCID=480e4318
DTITLE=Bill Haley - From Western Swing to R-O-C-K [CD-3 of 4)  Rock Around The 
DTITLE=CLock
DYEAR=1900
DGENRE=
TTITLE0=Bill Haley and His Comets - (We're Gonna) Rock Around The Clock[Bill Hale
TTITLE0=y and His Comets]
TTITLE1=Bill Haley and His Comets - Thirteen Women (And Only One Man In Town)[Bil
TTITLE1=l Haley and His Comets]
TTITLE2=Bill Haley and His Comets - Shake, Rattle And Roll[Bill Haley and His Comet
TTITLE2=s]
TTITLE3=Bill Haley and His Comets - ABC Boogie[Bill Haley and His Comets]
TTITLE4=Bill Haley and His Comets - Happy Baby[Bill Haley and His Comets]
TTITLE5=Bill Haley and His Comets - Dim, Dim The Lights (I Want Some Atmosphere)[
TTITLE5=Bill Haley and His Comets]
TTITLE6=Bill Haley and His Comets - Birth Of The Boogie[Bill Haley and His Comets]
TTITLE7=Bill Haley and His Comets - Mambo Rock[Bill Haley and His Comets]
TTITLE8=Bill Haley and His Comets - Two Hound Dogs[Bill Haley and His Comets]
TTITLE9=Bill Haley and His Comets - Razzle Dazzle[Bill Haley and His Comets]
TTITLE10=Bill Haley and His Comets - R-O-C-K[Bill Haley and His Comets]
TTITLE11=Bill Haley and His Comets - Rock-A-Beatin' Boogie[Bill Haley and His Comet
TTITLE11=s]
TTITLE12=Bill Haley and His Comets - The Saint's Rock 'n' Roll[Bill Haley and His C
TTITLE12=omets]
TTITLE13=Bill Haley and His Comets - Burn That Candle[Bill Haley and His Comets]
TTITLE14=Jodimars - Well Now Dig This[Jodimars]
TTITLE15=Jodimars - Dance The Bop[Jodimars]
TTITLE16=Jodimars - Let's All Rock Together[Jodimars]
TTITLE17=Bill Haley and His Comets - See You Later Alligator[Bill Haley and His Com
TTITLE17=ets]
TTITLE18=Bill Haley and His Comets - The Paper Boy (On Main Street, USA)[Bill Hal
TTITLE18=ey and His Comets]
TTITLE19=Jodimars - (Boom Boom) My Bayou Baby[Jodimars]
TTITLE20=Bill Haley and His Comets - Goofin' Around[JBill Haley and His Comets]
TTITLE21=Bill Haley and His Comets - Rudy's Rock[Bill Haley and His Comets]
TTITLE22=Bill Haley and His Comets - Hide And Seek[Bill Haley and His Comets]
TTITLE23=Bill Haley and His Comets - Hey Then There Now[Bill Haley and His Comets]
EXTD=
EXTT0=
EXTT1=
EXTT2=
EXTT3=
EXTT4=
EXTT5=
EXTT6=
EXTT7=
EXTT8=
EXTT9=
EXTT10=
EXTT11=
EXTT12=
EXTT13=
EXTT14=
EXTT15=
EXTT16=
EXTT17=
EXTT18=
EXTT19=
EXTT20=
EXTT21=
EXTT22=
EXTT23=
PLAYORDER=
